<svg xml:space="preserve" viewBox="1011 169 1000 250" height="250" width="1000" version="1.1" xmlns:xlink="http://www.w3.org/1999/xlink" xmlns="http://www.w3.org/2000/svg">
<desc>Created with Fabric.js 5.2.4</desc>
<defs>
</defs>
<rect fill="transparent" height="100%" width="100%" y="0" x="0"></rect>
<g id="e407a2fc-f729-4718-8e75-6a101745eee6" transform="matrix(Infinity NaN NaN Infinity 0 0)">
</g>
<g id="3a634fe2-658b-468e-8ce4-56bca7418df9" transform="matrix(1 0 0 1 500 125)">
<rect height="250" width="1000" ry="0" rx="0" y="-125" x="-500" style="stroke: none; stroke-width: 1; stroke-dasharray: none; stroke-linecap: butt; stroke-dashoffset: 0; stroke-linejoin: miter; stroke-miterlimit: 4; fill: rgb(255,255,255); fill-rule: nonzero; opacity: 1; visibility: hidden;"></rect>
</g>
<g transform="matrix(0.23 0 0 0.23 2477.71 540.97)">
<path stroke-linecap="round" d="M 246.27 165.79 Q 234.23 175.73 229.91 179.11 Q 209.82 194.78 184.76 197.75 Q 171.91 199.26 159.25 198.02 Q 132.59 195.4 111.11 178.35 Q 102.6 171.61 100.44 169.67 Q 94.09 164 90.37 162.9 C 77.89 159.19 67.16 171.76 72.37 183.61 Q 73.73 186.7 81.34 192.85 Q 91.94 201.4 92.16 201.57 Q 106.4 212.92 122.82 219.65 C 142.85 227.86 165.86 230.19 187.77 227.63 Q 203.79 225.76 217.26 220.41 Q 235.29 213.25 249.73 201.68 Q 255.97 196.67 265.73 188.62 Q 277.77 178.67 282.09 175.3 Q 302.18 159.62 327.24 156.65 Q 340.09 155.14 352.75 156.38 Q 379.41 159 400.89 176.05 Q 409.4 182.79 411.56 184.73 Q 417.91 190.4 421.63 191.5 C 434.11 195.21 444.84 182.64 439.63 170.79 Q 438.27 167.7 430.66 161.55 Q 420.06 153 419.84 152.83 Q 405.6 141.48 389.18 134.75 C 369.15 126.54 346.14 124.21 324.23 126.77 Q 308.21 128.64 294.74 133.99 Q 276.71 141.15 262.27 152.72 Q 256.02 157.73 246.27 165.79" transform="translate(-256, -177.2)" style="stroke: rgb(185,222,255); stroke-width: 2; stroke-dasharray: none; stroke-linecap: butt; stroke-dashoffset: 0; stroke-linejoin: miter; stroke-miterlimit: 4; fill: none; fill-rule: nonzero; opacity: 1;"></path>
</g>
<g transform="matrix(0.23 0 0 0.23 2477.71 559.21)">
<path stroke-linecap="round" d="M 246.27 244.59 Q 234.23 254.53 229.91 257.91 Q 209.82 273.58 184.76 276.55 Q 171.92 278.06 159.26 276.82 Q 132.6 274.2 111.12 257.15 Q 102.61 250.41 100.45 248.47 Q 94.1 242.8 90.38 241.71 C 77.9 238 67.17 250.57 72.38 262.41 Q 73.74 265.5 81.35 271.65 Q 91.95 280.2 92.17 280.37 Q 106.41 291.72 122.83 298.45 C 142.86 306.66 165.87 308.99 187.78 306.43 Q 203.8 304.56 217.26 299.21 Q 235.29 292.05 249.73 280.48 Q 255.98 275.47 265.73 267.42 Q 277.77 257.47 282.09 254.1 Q 302.18 238.42 327.24 235.45 Q 340.09 233.94 352.75 235.18 Q 379.41 237.8 400.89 254.85 Q 409.4 261.59 411.56 263.53 Q 417.91 269.2 421.63 270.3 C 434.11 274.01 444.84 261.44 439.63 249.59 Q 438.27 246.5 430.66 240.35 Q 420.06 231.8 419.84 231.63 Q 405.6 220.28 389.18 213.55 C 369.15 205.34 346.14 203.01 324.23 205.57 Q 308.21 207.44 294.74 212.79 Q 276.71 219.95 262.27 231.53 Q 256.03 236.53 246.27 244.59" transform="translate(-256, -256)" style="stroke: rgb(185,222,255); stroke-width: 2; stroke-dasharray: none; stroke-linecap: butt; stroke-dashoffset: 0; stroke-linejoin: miter; stroke-miterlimit: 4; fill: none; fill-rule: nonzero; opacity: 1;"></path>
</g>
<g transform="matrix(0.23 0 0 0.23 2477.72 577.45)">
<path stroke-linecap="round" d="M 246.28 323.38 Q 234.23 333.33 229.91 336.7 Q 209.82 352.37 184.76 355.34 Q 171.91 356.85 159.25 355.61 Q 132.59 352.99 111.11 335.94 Q 102.6 329.2 100.44 327.26 Q 94.09 321.59 90.37 320.49 C 77.89 316.78 67.16 329.35 72.37 341.2 Q 73.73 344.29 81.34 350.44 Q 91.94 358.99 92.16 359.16 Q 106.4 370.51 122.82 377.24 C 142.85 385.45 165.86 387.79 187.77 385.23 Q 203.79 383.36 217.26 378.01 Q 235.3 370.85 249.73 359.27 Q 255.98 354.27 265.74 346.21 Q 277.78 336.26 282.1 332.89 Q 302.19 317.22 327.25 314.25 Q 340.1 312.74 352.76 313.98 Q 379.42 316.6 400.9 333.65 Q 409.41 340.39 411.57 342.33 Q 417.92 348 421.64 349.1 C 434.12 352.81 444.86 340.24 439.65 328.39 Q 438.29 325.3 430.68 319.15 Q 420.07 310.6 419.85 310.43 Q 405.61 299.08 389.19 292.35 C 369.16 284.14 346.15 281.81 324.24 284.37 Q 308.22 286.24 294.75 291.59 Q 276.72 298.75 262.28 310.32 Q 256.03 315.32 246.28 323.38" transform="translate(-256.01, -334.8)" style="stroke: rgb(185,222,255); stroke-width: 2; stroke-dasharray: none; stroke-linecap: butt; stroke-dashoffset: 0; stroke-linejoin: miter; stroke-miterlimit: 4; fill: none; fill-rule: nonzero; opacity: 1;"></path>
</g>
<g transform="matrix(0.72 0 0 0.72 1853.29 286.36)">
<path stroke-linecap="round" d="M 941.24 146.54 Q 941.14 146.42 941.14 146.32 C 941.1405916881102 146.2832807785378 941.1161073969278 146.25087466415482 941.080623396272 146.24141226397995 C 941.0451393956162 146.23194986380506 941.0077703060599 146.24786174332436 940.99 146.28 Q 936.34 155.67 927.07 161.05 Q 916.14 167.4 902.97 167.91 Q 901.96 167.95 901.15 168.44 C 901.0127959720761 168.52514254836655 900.8534478307346 168.57017571874567 900.69 168.57 L 894.11 168.61 C 894.0303026736624 168.6099932713321 893.952930143912 168.5999012022342 893.88 168.58 Q 889.47 167.46 883.48 167.38 C 883.1718138749343 167.37993190528286 882.8688067859017 167.30073687064936 882.6 167.15 Q 881.81 166.72 877.94 165.87 Q 864.02 162.82 851.49 153.59 C 851.1744399476054 153.35994823682594 850.9142590381903 153.05526269816883 850.73 152.7 Q 850.5 152.24 850.26 152.08 C 849.5090151577463 151.58857815638484 849.2396275313047 150.6136515083109 849.63 149.8 Q 854.9 138.86 854.94 138.47 C 854.9593537233985 138.29359821581542 855.0510820131433 138.1331512938622 855.1932774372148 138.02697871055548 C 855.3354728612863 137.92080612724877 855.5153685190402 137.87844050173624 855.69 137.91 Q 856.65 138.08 857.3 139.02 C 857.4590745749348 139.2453836930014 857.6477644207085 139.44418192337014 857.86 139.61 Q 863.54 144.16 873.71 148.48 Q 875.21 149.12 877.96 149.96 Q 884.19 151.86 889.98 152.29 Q 892.83 152.51 902.47 152.31 Q 909.25 152.17 916.38 148.88 Q 916.47 148.84 917.09 148.15 C 917.2617397893288 147.96499559608048 917.4618519239397 147.8157594278961 917.68 147.71 Q 919.83 146.63 921.73 144.34 C 921.8469260185217 144.2036067720276 922.0011382837208 144.1089765183827 922.17 144.07 Q 922.79 143.94 923.19 143.45 C 928.33 137.25 929 128.91 927.9 121.08 Q 926.71 112.68 919.95 107.91 C 919.8134064268222 107.81877622784498 919.7087068862548 107.68964679447859 919.65 107.54 Q 919.51 107.19 919.4 107.13 Q 913.13 103.3 906.09 102.56 C 905.7305806132255 102.5200696052912 905.3794652580525 102.45319049002016 905.04 102.36 Q 902.72 101.72 899.75 101.7 Q 888.73 101.63 876.6 101.63 C 876.2074795950375 101.63 875.831035803947 101.47512544466284 875.5534819638439 101.19944696834423 C 875.2759281237409 100.92376849202562 875.12 100.54986824006413 875.12 100.16 L 875.12 87.52 C 875.1199388248564 86.86667239089404 875.6421856695289 86.33549824973137 876.29 86.33 Q 887 86.22 895.17 86.31 C 901.6 86.38 908.29 85.19 912.87 82.29 Q 913.23 82.06 913.52 81.57 C 913.6311472718952 81.38040863415632 913.7900526203673 81.2249577497814 913.98 81.12 Q 917.65 79.1 919.66 75.29 C 919.7493611111004 75.11473546955298 919.9602489963144 75.04004601020638 920.14 75.12 L 920.28 75.17 C 920.3300764869813 75.19387887934413 920.3900974850467 75.17673002275403 920.42 75.13 Q 922.97 71.4 922.94 67.51 C 922.9398435995465 67.19860075196883 923.0417545807993 66.89638197997749 923.23 66.65 Q 924 65.64 924.02 63 C 924.05 57.68 924.15 54.98 923 51.71 C 922.9743514518134 51.643148521141505 922.9050293114925 51.60374601568356 922.8344675578077 51.61591183528441 C 922.7639058041228 51.62807765488525 922.7117809312371 51.688419300551224 922.71 51.76 L 922.71 51.98 C 922.7155228474984 52.01313708498984 922.6931370849899 52.04447715250169 922.6600000000001 52.05 C 922.6268629150102 52.05552284749831 922.5955228474984 52.033137084989846 922.59 52 Q 922.3 50.64 922.07 50.22 Q 921.08 48.42 918.73 44.6 C 918.5320919166498 44.28328193799851 918.273536504983 44.01111834677017 917.97 43.8 Q 912.25 39.94 904.94 37.95 Q 901.57 37.02 895.48 37.21 Q 889.47 37.39 886.03 38.18 Q 884.39 38.55 879.04 40.21 Q 874.54 41.61 872.23 42.79 Q 864.23 46.87 858.23 53.28 C 858.1198752413898 53.39852619557891 857.9583418801597 53.45505249679605 857.7983421200823 53.43105253278444 C 857.6383423600049 53.40705256877283 857.5005027803109 53.30562032641707 857.43 53.16 L 851.31 40.87 C 851.1019326865643 40.457679401027505 851.1828436462122 39.96007699919268 851.51 39.64 L 855.96 35.19 C 856.0479383153714 35.102328784911116 856.1755649431316 35.06479154145225 856.3 35.09 Q 856.76 35.2 856.96 34.9 Q 857.04 34.78 857.38 34.54 Q 867.79 26.95 880.43 23.9 C 885.56 22.67 889.93 22.62 896.24 21.95 Q 898.65 21.69 906.36 22.8 C 906.6196269107606 22.839940737692874 906.8837339759834 22.859999502140173 907.15 22.86 Q 911.88 22.89 916.35 24.65 C 920.47 26.28 924.18 27.54 927.11 29.73 Q 935.19 35.76 938.56 44.49 Q 940.35 49.12 941.32 57.68 C 941.62 60.36 940.73 62.51 940.84 65.47 C 940.8466206530641 65.5890571183977 940.8330915392088 65.70743686463162 940.8 65.82 L 938.53 73.22 C 938.5167064258275 73.25990979194133 938.499990375549 73.30002831260963 938.48 73.34 Q 936.63 77.02 936.49 78.27 C 936.4522372897151 78.6110479960709 936.235528504656 78.90759685983583 935.92 79.05 C 934.5 79.67 933.83 81.45 932.99 82.43 Q 927.75 88.55 920.62 91.92 C 920.432494106535 92.00784777337643 920.3187557700159 92.2008550559558 920.3318952518003 92.40889685087731 C 920.3450347335848 92.61693864579883 920.4824599417498 92.79897349761114 920.68 92.87 Q 937.82 98.69 943.54 115.57 C 943.6463331969658 115.8823059838559 943.7167924273908 116.20776052439084 943.75 116.54 C 944.05 119.59 944.89 122.4 945.1 125.33 Q 945.58 131.85 943.54 139.83 Q 943.49 140.04 941.53 146.48 C 941.511006029376 146.54170929925667 941.4598846880914 146.58891791107584 941.3982446858279 146.6016710149924 C 941.3366046835645 146.614424118909 941.275205409907 146.5904956343192 941.24 146.54 Z" transform="translate(-897.41, -95.21)" style="stroke: none; stroke-width: 1; stroke-dasharray: none; stroke-linecap: butt; stroke-dashoffset: 0; stroke-linejoin: miter; stroke-miterlimit: 4; fill: rgb(0,0,0); fill-rule: nonzero; opacity: 1;"></path>
</g>
<g transform="matrix(0.72 0 0 0.72 1544.84 285.97)">
<path stroke-linecap="round" d="M 454.25 58.18 Q 454.44 59.35 453.5 60.41 C 453.366029296262 60.5584313967202 453.33099169189836 60.77053113858069 453.409822310932 60.955889621173306 C 453.48865292996567 61.141248103765925 453.66745019094213 61.26717782475181 453.87 61.28 C 453.92135003647695 61.282797955106595 453.9715100971932 61.26471549588631 454.0078201428592 61.23031650525534 C 454.0441301885252 61.19591751462437 454.0631212064421 61.14848842566594 454.06 61.1 Q 453.96 53.36 457.05 45.5 Q 457.91 43.32 458.21 41.41 Q 458.26 41.11 458.6 41.15 C 458.7238461000467 41.168765551346524 458.85051619918005 41.115026721411176 458.93 41.01 Q 462.06 37.08 462.5 35.78 C 462.6177610228437 35.440145976819345 462.82941943819105 35.141742309280524 463.11 34.92 L 469.24 29.99 C 469.2995430532109 29.937078925326325 469.3705597349596 29.89311621757712 469.45 29.86 Q 478.19 25.99 478.26 25.92 C 478.50097998576405 25.652958548252897 478.84610946475755 25.50037498911894 479.21 25.5 Q 481.47 25.51 483.91 24.36 C 484.0292604926577 24.307076910291443 484.15753563090254 24.273320294963852 484.29 24.26 L 501.09 23.03 C 501.3023109304313 23.013476065457372 501.5124482867216 23.082282456346764 501.6738689609926 23.22117931560318 C 501.83528963526356 23.360076174859593 501.9346705758569 23.55759948128869 501.95 23.77 L 502.78 35.14 C 502.80753470398344 35.4956188954128 502.6921529821481 35.84754086653473 502.4594088931842 36.117824324686396 C 502.22666480422026 36.38810778283806 501.89576672591755 36.5544462247797 501.54 36.58 Q 497.31 36.89 490.94 37.15 Q 489.56 37.2 484.49 38.69 Q 481.01 39.71 478.61 41.69 Q 474.13 45.39 472.37 49.48 C 472.1123136990844 50.081219412156486 471.969843561484 50.72572717749152 471.95 51.38 Q 471.93 52.39 471.28 53.36 C 471.04532018242116 53.711881788803225 470.92005753261463 54.12594443677487 470.92 54.55 L 470.92 67.04 C 470.92 67.18586906941175 470.977946262201 67.32576372150619 471.08109127034743 67.4289087296526 C 471.1842362784938 67.53205373779903 471.3241309305883 67.59 471.47 67.59 L 496.81 67.59 C 497.46721885229863 67.59 498 68.12278114770136 498 68.78 L 498 79.75 C 498 80.75515824469204 497.18963539719374 81.57 496.19 81.57 L 470.81 81.57 C 470.6001317950643 81.57 470.43 81.73565464256261 470.43 81.94 L 470.43 165.11 C 470.43 165.76721885229867 469.89721885229864 166.3 469.24 166.3 L 454.84 166.3 C 454.0447099602436 166.3 453.4 165.65529003975635 453.4 164.86 L 453.4 82.34 C 453.4 81.90921789513199 453.050782104868 81.56000000000002 452.62 81.56 L 435.32 81.56 C 434.6462126052064 81.55999999999999 434.1 81.01378739479355 434.1 80.34 L 434.1 69.16 C 434.1 68.29291294276565 434.80291294276566 67.59 435.67 67.59 L 452.58 67.59 C 452.7289666382657 67.59099537309405 452.8712064380758 67.52805349860463 452.9706505948382 67.41713501606188 C 453.0700947516007 67.30621653351912 453.11719216739596 67.15797459060263 453.1 67.01 Q 452.65 62.83 452.93 61.8 Q 453.11 61.12 453.55 58.19 C 453.5811109447487 58.01860405347499 453.7308094095511 57.89127177146266 453.90411107603126 57.88879603337009 C 454.0774127425114 57.886320295277514 454.2236353387956 58.00942513356003 454.25 58.18 Z" transform="translate(-468.44, -94.66)" style="stroke: none; stroke-width: 1; stroke-dasharray: none; stroke-linecap: butt; stroke-dashoffset: 0; stroke-linejoin: miter; stroke-miterlimit: 4; fill: rgb(34,32,175); fill-rule: nonzero; opacity: 1;"></path>
</g>
<g transform="matrix(0.72 0 0 0.72 1260.7 286.22)">
<path stroke-linecap="round" d="M 97.86 107.03 L 98.12 107.13 C 98.15313708498985 107.13276142374914 98.17776142374916 107.16186291501015 98.17500000000001 107.195 C 98.17223857625085 107.22813708498985 98.14313708498985 107.25276142374915 98.11 107.25 Q 85.09 110 79.5 110.08 Q 58.79 110.38 39.41 110.07 C 39.196099489182075 110.0673260340501 38.99003789156284 110.15042957521585 38.837838990309464 110.30074947768833 C 38.685640089056086 110.4510693801608 38.599983287055856 110.65608277689081 38.6 110.87 L 38.6 165.36 C 38.59999999999999 165.89019335983755 38.170193359837555 166.32 37.64 166.32 L 22.07 166.32 C 21.68340067511845 166.32 21.370000000000008 166.00659932488156 21.37 165.62 L 21.37 25.15 C 21.3700093168027 24.766349367451287 21.52204975011761 24.398556113755888 21.792391438602618 24.12821442527088 C 22.06273312708763 23.85787273678587 22.429022858554877 23.70733582569911 22.81 23.71 Q 32.18 23.73 78.5 23.73 Q 83.29 23.73 90.21 24.55 Q 92.86 24.87 102.18 28.1 Q 109.55 30.66 116.73 38.56 C 116.76161631035288 38.595347076113725 116.76945003316774 38.64599837315468 116.74998902377325 38.68924506069797 C 116.73052801437878 38.73249174824125 116.68742318171208 38.7602206953155 116.64 38.76 Q 116.58 38.77 116.48 38.81 C 116.46761577875371 38.816055461332525 116.47664515944811 38.85369532302176 116.50498559900556 38.91415492741097 C 116.533326038563 38.974614531800185 116.57850416771696 39.052617357787454 116.63 39.13 Q 121.08 45.46 122.59 50.39 Q 125.52 59.99 124.78 72.64 Q 124.54 76.61 123.08 81.32 Q 121.54 86.26 120.16 89.72 C 118.92 92.82 117.45 93.87 114.83 97.03 C 114.23268228189316 97.74675265890947 113.5431840646369 98.37907297522254 112.78 98.91 Q 110.4 100.55 106.97 102.99 Q 105.1 104.32 97.86 106.81 C 97.81624642909784 106.82907588678091 97.78795831523313 106.87226883174311 97.78795831523313 106.92 C 97.78795831523313 106.96773116825689 97.81624642909784 107.01092411321909 97.86 107.03 Z M 98.48 43.94 Q 93.93 41.21 87.98 39.61 Q 87.22 39.41 86.61 39.51 C 86.30323707805321 39.562044905041404 85.98627089235914 39.52024716626856 85.7 39.39 Q 83.38 38.36 81.37 38.36 Q 60.89 38.34 41.5 38.34 Q 40.78 38.34 39.23 38.13 C 39.06687967732111 38.10978988212484 38.90297741038586 38.1597394764099 38.78036154725154 38.267028356652425 C 38.65774568411722 38.37431723689496 38.58835506829886 38.52849891501931 38.59 38.69 L 38.59 94.62 C 38.58993215626671 94.83706685709171 38.76300097603938 95.01457333890984 38.98 95.02 Q 56.7 95.19 79.24 95.05 Q 91.01 94.98 100.23 87.97 Q 101.36 87.11 102.67 85.19 C 102.73795003619396 85.0968853925728 102.95971303417518 84.95029629221234 103.26 84.8 Q 103.42 84.72 103.54 84.56 Q 107.8 78.69 107.94 70.75 C 108.03 65.54 108.35 62.08 107.55 58.2 Q 106 50.77 101.14 46.26 C 100.92106052744397 46.06101512579143 100.67188666773683 45.892654409773094 100.4 45.76 Q 99.06 45.12 98.97 44.94 Q 98.76 44.54 98.76 44.53 C 98.83159443889869 44.32625850615847 98.71421224150625 44.078917447367246 98.48 43.94 Z" transform="translate(-73.28, -95.01)" style="stroke: none; stroke-width: 1; stroke-dasharray: none; stroke-linecap: butt; stroke-dashoffset: 0; stroke-linejoin: miter; stroke-miterlimit: 4; fill: rgb(0,0,0); fill-rule: nonzero; opacity: 1;"></path>
</g>
<g transform="matrix(0.72 0 0 0.72 1593.81 286.97)">
<path stroke-linecap="round" d="M 516.46 143.65 Q 515.15 138.56 515.15 135.75 Q 515.17 49.2 515.17 30.5 Q 515.17 27.47 515.35 25.53 C 515.4330574416098 24.547099937926667 516.2584251708926 23.791236859530816 517.25 23.79 L 530.55 23.79 C 531.5899253723968 23.78998544367996 532.4344977494538 24.630089183821205 532.44 25.67 Q 532.76 79.41 532.5 136.25 Q 532.44 149.39 543.93 152.95 C 544.2491766704949 153.0497441178149 544.5775327464781 153.11675556189314 544.91 153.15 Q 550.45 153.72 556.89 152.87 C 557.1578385389697 152.83550010414595 557.4275723235464 152.91662909944606 557.6304442400339 153.09270661186903 C 557.8333161565212 153.268784124292 557.9497259816757 153.5227986393247 557.95 153.79 L 557.95 164.81 C 557.9481878316852 165.99964443750775 557.0920351971857 167.0160620971845 555.92 167.22 Q 554 167.55 547.15 168.21 C 540.95 168.81 534.81 166.95 529.02 164.6 C 528.7482283273837 164.49400091488687 528.4954113981678 164.34905254213646 528.27 164.17 Q 524.11 160.83 522.4 158.97 C 519.46 155.75 518.43 151.77 516.81 146.87 Q 516.63 146.34 516.59 144.62 C 516.5833353589819 144.29440258203977 516.5397281317526 143.9690255788662 516.46 143.65 Z" transform="translate(-536.55, -96.06)" style="stroke: none; stroke-width: 1; stroke-dasharray: none; stroke-linecap: butt; stroke-dashoffset: 0; stroke-linejoin: miter; stroke-miterlimit: 4; fill: rgb(34,32,175); fill-rule: nonzero; opacity: 1;"></path>
</g>
<g transform="matrix(0.72 0 0 0.72 1953.56 286.24)">
<path stroke-linecap="round" d="M 1064.43 157.9 Q 1064.56 157.95 1064.65 158.13 C 1064.6630377459499 158.15625877880512 1064.6638957620266 158.1869161564103 1064.6523470969641 158.21386304155607 C 1064.6407984319017 158.24080992670184 1064.6180065266863 158.26133162375325 1064.59 158.27 Q 1052.97 162.81 1051.87 163.1 Q 1046.65 164.48 1039 165.56 Q 1033.12 166.38 1025.95 166.37 Q 1002.39 166.32 977.54 166.33 C 977.1699692176134 166.32999999999998 976.87 166.0345079348883 976.87 165.67 L 976.87 24.05 C 976.87 23.878791727552475 977.0087917275524 23.740000000000027 977.18 23.74 Q 1012.63 23.68 1027 23.78 Q 1037.27 23.84 1046.77 25.74 C 1046.9727309761226 25.77931619397973 1047.1595801209482 25.872740766392518 1047.31 26.01 Q 1047.34 26.04 1047.47 26.23 C 1047.5085305434504 26.280906365143387 1047.5664870081155 26.313506876517415 1047.63 26.32 L 1051.57 26.87 C 1051.5882999487953 26.871977040822323 1051.604679888981 26.882244325384146 1051.614435279544 26.897852950284896 C 1051.624190670107 26.913461575185643 1051.6262419633397 26.93268426409322 1051.62 26.95 Q 1051.56 27.19 1051.75 27.24 Q 1061.39 29.69 1069.89 35.35 Q 1071.59 36.48 1071.94 37 C 1072.1152757708721 37.26654981543815 1072.367329659642 37.46959322583612 1072.66 37.58 Q 1074.65 38.36 1075.73 39.82 Q 1077.23 41.82 1078.09 42.33 Q 1079.86 43.39 1081.37 45.45 C 1081.5007820818353 45.62664878487299 1081.580335729931 45.827262332244935 1081.6 46.03 Q 1081.62 46.17 1081.76 46.35 Q 1088.8 54.87 1092.39 65.76 C 1092.4757297903545 66.0301059852263 1092.6189695684225 66.27907036139209 1092.81 66.49 Q 1094.14 67.93 1093.9 70.3 C 1093.8603400922404 70.73663468968557 1093.8975716012008 71.17664343194299 1094.01 71.6 Q 1095.66 77.81 1096.04 83.57 Q 1096.45 89.71 1096.57 91.39 Q 1096.9 96.22 1096.59 99.25 Q 1095.77 107.06 1095.89 108.7 C 1095.9164724465925 109.04383811125744 1095.8826267298796 109.38906442172947 1095.79 109.72 C 1095 112.44 1094.92 115.13 1094.18 118.07 Q 1091.08 130.39 1084.19 140.93 C 1084.1123363958072 141.0535339576728 1083.9964666722124 141.14833645879574 1083.86 141.2 L 1083.56 141.3 C 1083.5140401559415 141.31964019899036 1083.4729108466522 141.35048718095737 1083.44 141.39 C 1081.74 143.85 1080.81 144.67 1079.32 147 C 1077.97 149.09 1075.69 149.69 1074.19 151.62 Q 1073.27 152.8 1071.71 153.73 Q 1066.21 156.99 1064.43 157.85 C 1064.4216206442863 157.8555582357775 1064.4165831239518 157.8649447731435 1064.4165831239518 157.875 C 1064.4165831239518 157.8850552268565 1064.4216206442863 157.8944417642225 1064.43 157.9 Z M 1077.61 108.22 Q 1077.55 108.61 1077.66 108.77 C 1077.7049670602469 108.8402355679269 1077.7872339619048 108.87720665772378 1077.8696105003985 108.86419983585637 C 1077.951987038892 108.85119301398898 1078.0188606744236 108.79067341832004 1078.04 108.71 Q 1078.8 105.91 1078.81 105.51 Q 1079.04 98.91 1078.46 83 C 1078.4532850460253 82.84872730111 1078.4087086681686 82.69785340682623 1078.33 82.56 L 1077.34 80.84 C 1077.1762862143842 80.5588347241182 1077.0932389430698 80.24048685074673 1077.1 79.92 Q 1077.21 76.54 1076.46 75.11 C 1075.72 73.69 1076.5 72.12 1075.3 70.97 C 1075.0621595129767 70.73853838504948 1074.9225030335438 70.42341607248277 1074.91 70.09 Q 1074.78 66.25 1072.3 62.53 C 1072.2279734685553 62.41886635652603 1072.1240840224139 62.3288288365368 1072 62.27 Q 1071.21 61.87 1071.06 60.84 C 1071.0039685488366 60.48187901844888 1070.7807777757928 60.173131782405115 1070.46 60.01 Q 1069.31 59.43 1068.84 57.89 C 1068.7410455009888 57.56668264208508 1068.577736907566 57.267283554143525 1068.36 57.01 C 1066.61 54.93 1065.76 53.25 1063.81 51.84 Q 1061.9 50.46 1059.49 47.89 C 1059.2656093826556 47.64579557748389 1058.9935877339124 47.448579882145005 1058.69 47.31 Q 1055.22 45.69 1051.71 43.82 Q 1048.69 42.21 1044.67 41.21 Q 1040.11 40.08 1037.32 39.69 Q 1031.89 38.92 1031.06 38.58 C 1030.736588490463 38.444284443050506 1030.3787347676555 38.42656891221846 1030.05 38.53 Q 1029.54 38.68 1028.75 38.69 Q 1000 38.71 994.72 38.66 C 994.4318374842743 38.65733171390958 994.1545592524707 38.76993806761865 993.9498519878032 38.972767283986485 C 993.7451447231356 39.175596500354324 993.6299876465577 39.45182513109667 993.63 39.74 L 993.63 150.66 C 993.63 151.2122847498308 994.0777152501691 151.66 994.63 151.66 Q 1004.92 151.7 1023.65 151.69 C 1025.63 151.69 1027.5 151.17 1029.01 151.17 Q 1036.36 151.17 1042.72 149.39 Q 1043.27 149.24 1047.53 147.92 Q 1052.26 146.46 1055.5 144.84 Q 1056.14 144.52 1056.31 144.02 C 1056.3680269712945 143.85209910903308 1056.4851249521569 143.7101621625333 1056.64 143.62 Q 1060.89 141.21 1061.64 140.39 Q 1064.35 137.42 1067.19 135.3 Q 1068.84 134.07 1071.22 129.01 C 1071.345845748646 128.7515907525758 1071.5112265793882 128.5153324229439 1071.71 128.31 Q 1072.62 127.36 1073.29 125.77 Q 1075.77 119.85 1076.11 116.55 C 1076.14970790742 116.13957235691163 1076.2579087536237 115.74058173653565 1076.43 115.37 Q 1077.34 113.33 1077.1 110.47 C 1077.067319147494 110.10209136777235 1077.1256482034842 109.72809918524605 1077.27 109.38 Q 1077.55 108.7 1077.61 108.23 Q 1077.65 107.98 1077.61 108.22 Z" transform="translate(-1036.85, -95.04)" style="stroke: none; stroke-width: 1; stroke-dasharray: none; stroke-linecap: butt; stroke-dashoffset: 0; stroke-linejoin: miter; stroke-miterlimit: 4; fill: rgb(0,0,0); fill-rule: nonzero; opacity: 1;"></path>
</g>
<g transform="matrix(0.72 0 0 0.72 1369.77 242.96)">
<path stroke-linecap="round" d="M 235.03 43.55 C 235.03 43.807259995144356 234.92780386484554 44.053983290656355 234.74589357775096 44.23589357775095 C 234.56398329065635 44.417803864845546 234.31725999514435 44.52 234.06 44.52 L 215.9 44.52 C 215.64274000485565 44.52 215.39601670934366 44.417803864845546 215.21410642224905 44.23589357775095 C 215.03219613515446 44.053983290656355 214.93 43.807259995144356 214.93 43.55 L 214.93 26.19 C 214.93 25.932740004855642 215.03219613515446 25.686016709343644 215.21410642224905 25.50410642224905 C 215.39601670934366 25.322196135154456 215.64274000485565 25.22 215.9 25.22 L 234.06 25.22 C 234.31725999514435 25.22 234.56398329065635 25.322196135154456 234.74589357775096 25.50410642224905 C 234.92780386484554 25.686016709343644 235.03 25.932740004855642 235.03 26.19 L 235.03 43.55 Z" transform="translate(-224.98, -34.87)" style="stroke: none; stroke-width: 1; stroke-dasharray: none; stroke-linecap: butt; stroke-dashoffset: 0; stroke-linejoin: miter; stroke-miterlimit: 4; fill: rgb(0,0,0); fill-rule: nonzero; opacity: 1;"></path>
</g>
<g transform="matrix(0.72 0 0 0.72 1494.64 292.09)">
<path stroke-linecap="round" d="M 386.87 153.63 Q 386.86 153.44 386.35 152.98 C 386.16378516956297 152.79969748079236 386.0560260442247 152.5554434633591 386.05 152.3 Q 386.04 151.19 385.03 150.65 C 384.76575767695965 150.5076383786012 384.6035249146565 150.23338775661244 384.61 149.94 Q 384.64 148.67 383.55 146.66 C 383.3269805525247 146.25350844920098 383.2100433369715 145.7960775765961 383.21 145.33 Q 383.22 143.17 382.41 141.67 C 382.17377123537517 141.2305420237588 382.05008471445257 140.74266741345284 382.05 140.25 L 382.05 82.08 C 382.05 81.93943526038504 381.99310730620266 81.80462768654859 381.8918376618407 81.70523340597111 C 381.7905680174788 81.60583912539366 381.65321690451333 81.55 381.51 81.55 L 364.03 81.55 C 363.5163751826574 81.54999999999997 363.1 81.13362481734262 363.1 80.62 L 363.1 68.41 C 363.1 68.19517464322996 363.185339040696 67.9891479737818 363.3372435072389 67.8372435072389 C 363.4891479737818 67.68533904069598 363.69517464323 67.6 363.91 67.6 L 381.58 67.6 C 381.7019995853262 67.60000000000001 381.8190023852597 67.55258942183558 381.9052691193458 67.46819805153396 C 381.9915358534319 67.38380668123234 382.04 67.2693474204278 382.04 67.15 L 382.04 38.61 C 382.04 38.1239894201489 382.4384665726506 37.730000000000004 382.93 37.73 L 398.08 37.73 C 398.2895210269732 37.72999999999999 398.4904606181634 37.81323190388867 398.6386143571374 37.961385642862616 C 398.7867680961113 38.10953938183657 398.87 38.31047897302676 398.87 38.52 L 398.87 66.36 C 398.87 66.68621628250264 398.99958891364946 66.99907159536838 399.23025865914053 67.22974134085946 C 399.46092840463166 67.46041108635055 399.7737837174974 67.59 400.1 67.59 L 428.42 67.59 C 429.226335734753 67.59000000000002 429.88 68.23918711274536 429.88 69.04 L 429.88 80.36 C 429.88 81.02826454729525 429.33826454729524 81.56999999999998 428.67 81.57 L 400.08 81.57 C 399.4117354527047 81.57000000000001 398.87 82.11173545270475 398.87 82.78 L 398.87 134.71 C 398.86999426368976 134.75660828206432 398.87333606701134 134.80339352856677 398.88 134.85 Q 399.05 135.65 400.08 140.3 C 403.3 154.92 418.88 155.17 430.57 151.37 C 430.83947460173925 151.28049219072963 431.1344031830827 151.30207233082794 431.39 151.43 Q 432.08 151.78 431.93 152.9 Q 431.82 153.65 432.1 154.58 Q 433.04 157.67 434.13 162.78 C 434.3363104536068 163.7394014657289 433.80875355719184 164.70517094545627 432.89 165.05 Q 431.77 165.47 427.57 166.65 Q 424.73 167.44 423.79 167.57 Q 420.38 168.05 419.95 168.39 C 419.6885476498346 168.54705347309812 419.3912574826905 168.63001817090577 419.09 168.63 L 414.45 168.62 C 414.1713036001087 168.62001744495848 413.89224975347656 168.58303440504338 413.62 168.51 Q 409.74 167.45 406.04 167.35 C 405.89477672985623 167.34997860807223 405.75222787008533 167.32282644430637 405.62 167.27 L 395.83 163.56 C 395.67848071116936 163.50732580988216 395.5387423923824 163.42211951793888 395.42 163.31 L 391.17 159.35 C 390.89766043904814 159.09761783026366 390.65919552742395 158.81549032918718 390.46 158.51 L 387.23 153.45 C 387.1888500365894 153.39412189439355 387.1168691250938 153.37777073314697 387.0498055252889 153.4090670797226 C 386.982741925484 153.44036342629823 386.93488412670115 153.51263931900806 386.93 153.59 Q 386.93 153.62 386.91 153.64 C 386.90723857625085 153.6510456949966 386.89604569499664 153.65776142374915 386.885 153.655 C 386.8739543050034 153.65223857625085 386.8672385762508 153.64104569499662 386.87 153.63 Z" transform="translate(-398.64, -103.18)" style="stroke: none; stroke-width: 1; stroke-dasharray: none; stroke-linecap: butt; stroke-dashoffset: 0; stroke-linejoin: miter; stroke-miterlimit: 4; fill: rgb(0,0,0); fill-rule: nonzero; opacity: 1;"></path>
</g>
<g transform="matrix(0.72 0 0 0.72 1331.65 301.1)">
<path stroke-linecap="round" d="M 161.6 83.37 Q 162.33 81.48 163.8 79.15 Q 165.02 77.22 171.83 71.58 C 171.89648183108045 71.52679596353985 171.9702453760951 71.47985552580325 172.05 71.44 L 176.79 69.28 C 176.96311503854488 69.20010413879747 177.1402246328423 69.1299286391702 177.32 69.07 L 185.36 66.5 C 185.45964364216906 66.46680858911728 185.5638487764351 66.44663985345288 185.67 66.44 L 198.12 65.14 C 198.2749295688862 65.12043016015355 198.43103940549904 65.16760169977987 198.55065716404172 65.27013120710217 C 198.6702749225844 65.37266071442448 198.74253513360546 65.52123492991294 198.75 65.68 L 199.19 73.94 Q 199.2 73.98 199.21 74.02 Q 199.92 76.26 199.86 78.69 C 199.8354921727113 79.59388642375971 199.1227431471124 80.32836560257807 198.22 80.38 Q 191.01 80.77 182.66 82.41 Q 174.07 84.09 168.2 90.46 Q 167.38 91.36 166.5 92.75 Q 166.08 93.43 164.95 94.65 C 164.74444839903953 94.87536963462082 164.57258826396875 95.13147493394199 164.44 95.41 Q 161.34 102.04 161.36 109.76 Q 161.46 141.62 161.38 165.55 C 161.37452880775143 165.96030306400786 161.04033953861202 166.29003647622542 160.63 166.29 L 145.26 166.29 C 144.59173545270474 166.29 144.05 165.75274169979696 144.05 165.09 L 144.05 68.39 C 144.05 67.95921789513199 144.40369504763368 67.61 144.84 67.61 L 159.48 67.61 C 159.6444342237005 67.61 159.80213364969788 67.67532124102655 159.91840620433567 67.79159379566434 C 160.03467875897343 67.90786635030213 160.1 68.06556577629948 160.1 68.23 L 160.1 83.09 C 160.1091688671466 83.45816853784424 160.3746011403721 83.76975788896512 160.73663048275202 83.8373366995427 C 161.09865982513193 83.90491551012029 161.4586270899825 83.71006740610694 161.6 83.37 Z" transform="translate(-171.97, -115.71)" style="stroke: none; stroke-width: 1; stroke-dasharray: none; stroke-linecap: butt; stroke-dashoffset: 0; stroke-linejoin: miter; stroke-miterlimit: 4; fill: rgb(0,0,0); fill-rule: nonzero; opacity: 1;"></path>
</g>
<g transform="matrix(0.72 0 0 0.72 1427.71 301.44)">
<path stroke-linecap="round" d="M 316.76 81.12 Q 316.88 81.09 316.94 80.95 C 316.96201648490853 80.90599114870591 316.96119554839805 80.85406721126705 316.9377735044305 80.80917496032924 C 316.91435146046297 80.76428270939145 316.8709269097559 80.73140279633 316.82 80.72 Q 309.04 79.16 300.8 80.7 C 300.7043571146386 80.71867876096125 300.63239879261715 80.79805202093165 300.62315966836695 80.89506282555875 C 300.61392054411675 80.99207363018586 300.6696024157703 81.08360309907769 300.76 81.12 Q 300.79 81.13 301.09 81.12 C 301.111299730509 81.12253493838679 301.13066141842484 81.13694505237704 301.1375889723881 81.15541852961233 C 301.1445165263513 81.17389200684761 301.1373604106159 81.19203008533849 301.12 81.2 Q 300.87 81.33 300.1 81.5 Q 294.41 82.78 289.75 86.35 C 289.5909961287744 86.46923602534389 289.45266341503043 86.61094270771572 289.34 86.77 Q 288.06 88.46 286.5 89.56 C 286.4008545215484 89.626043082598 286.3128408621357 89.71067160126402 286.24 89.81 Q 279.97 98.72 279.95 107.01 Q 279.89 128.32 279.91 165.02 C 279.91 165.35682494209624 279.7761968127359 165.67985441147792 279.53802561210694 165.91802561210693 C 279.2998544114779 166.15619681273594 278.9768249420962 166.29 278.64 166.29 L 264.08 166.29 C 263.5884665726506 166.29 263.19 165.8915334273494 263.19 165.4 L 263.19 69.45 C 263.19 68.95934949379684 263.384910154676 68.48879475493374 263.7318524548049 68.14185245480488 C 264.07879475493377 67.794910154676 264.54934949379685 67.6 265.04 67.6 L 278.24 67.6 C 278.46808618126204 67.6 278.6868305463551 67.69060688271425 278.84811183182046 67.85188816817956 C 279.00939311728575 68.01316945364486 279.1 68.23191381873798 279.1 68.46 L 279.1 82.85 C 279.0966317421001 83.11079909820081 279.28665445697953 83.33079417633881 279.54570371936114 83.36600475569165 C 279.80475298174275 83.4012153350445 280.05386368178387 83.240908293886 280.13 82.99 Q 280.69 81 281.44 80.16 Q 286.63 74.34 292.38 70.83 Q 293.19 70.34 300.23 67.74 Q 304.36 66.22 308.48 66.15 Q 317.59 66 319 66.3 Q 319.21 66.35 325.97 67.76 Q 331.45 68.9 336.36 72.86 Q 339.15 75.11 340.04 76.61 C 340.29851991405803 77.05195392241052 340.5043396901925 77.38592563462878 340.57 77.47 Q 344.78 82.81 346.04 89.75 Q 346.51 92.32 347.35 94.81 C 347.5487754928691 95.41306118320904 347.65333846813877 96.04381203402957 347.66 96.68 L 347.92 165.76 C 347.92 165.91117339920854 347.86100016939537 166.05615512956095 347.7559797974645 166.16305086527635 C 347.6509594255336 166.26994660099172 347.50852123431014 166.33 347.36 166.33 L 331.84 166.33 C 331.409217895132 166.32999999999998 331.06 165.980782104868 331.06 165.55 Q 331.01 121.74 331.05 107.02 Q 331.08 100.26 330.65 98.01 Q 329.86 93.76 328.22 89.3 Q 327.52 87.38 325.64 85.68 C 325.5816076400827 85.655464154629 325.51403167217626 85.67658164459978 325.48 85.73 L 325.36 85.92 C 325.34665498285466 85.9421889642524 325.3233960305621 85.95654695340482 325.2975794495578 85.95853284425131 C 325.27176286855354 85.96051873509779 325.2465816232411 85.9498869149919 325.23 85.93 Q 322.19 82.04 316.76 81.19 C 316.7472673671424 81.18295524642701 316.739364916731 81.1695515804087 316.739364916731 81.155 C 316.739364916731 81.14044841959131 316.7472673671424 81.12704475357299 316.76 81.12 Z" transform="translate(-305.56, -116.19)" style="stroke: none; stroke-width: 1; stroke-dasharray: none; stroke-linecap: butt; stroke-dashoffset: 0; stroke-linejoin: miter; stroke-miterlimit: 4; fill: rgb(0,0,0); fill-rule: nonzero; opacity: 1;"></path>
</g>
<g transform="matrix(0.72 0 0 0.72 1650.18 302.15)">
<path stroke-linecap="round" d="M 638.22 162.75 Q 638.28 162.73 638.34 162.76 C 638.3515691275443 162.77093893235875 638.357236779467 162.78673385132484 638.3552619184076 162.80253273980094 C 638.353287057348 162.818331628277 638.343905814662 162.832245435417 638.33 162.84 Q 633.19 165.3 631.21 165.7 Q 628.71 166.2 627.81 166.86 C 627.6064104877515 167.00439668504615 627.3659973187297 167.09712747881173 627.11 167.13 Q 619.73 168.11 611.72 168.26 C 611.700124818873 168.26003070695387 611.6798528467477 168.25665204493302 611.66 168.25 L 603.19 167.35 C 603.0509020187012 167.33010260043383 602.91917249197 167.28957043836272 602.8 167.23 Q 601.11 166.41 595.81 164.95 Q 594.02 164.46 589.09 161.04 C 588.8254992470042 160.86146334262517 588.5271399349655 160.73262636697206 588.21 160.66 Q 587.83 160.58 586.96 160.08 Q 582.23 157.38 578.99 152.01 Q 578.61 151.37 575.6 147.55 C 575.3742394696861 147.27117115462087 575.1860057004627 146.96529127963296 575.04 146.64 Q 572.13 140.21 571.06 137.74 Q 570.92 137.44 570.43 136.99 C 570.1918133719424 136.7770864435727 570.0724175644228 136.45994132984848 570.11 136.14 Q 570.26 134.69 569.52 131.68 C 568.63 128.1 568.98 125.35 568.12 121.65 C 568.0135935706512 121.21120869609189 567.9532634646237 120.75873290088504 567.94 120.3 Q 567.81 116.77 567.96 114.74 Q 568.75 104.09 571.3 94.64 C 571.3793027766055 94.35566043180445 571.5081253458695 94.09123515805207 571.68 93.86 Q 573.15 91.86 575.2 87.69 Q 577.47 83.06 584.31 76.38 Q 586.26 74.48 587.73 73.69 Q 589.91 72.53 590.79 71.43 C 590.9076666207525 71.2795537211636 591.0672043786602 71.16510272092539 591.25 71.1 L 599.54 67.98 C 599.5863455414209 67.96012888820307 599.633447230257 67.94667126282133 599.68 67.94 Q 602.31 67.62 603.93 66.67 C 604.545599477378 66.31655518998004 605.2428771633143 66.13360609416507 605.95 66.14 L 623.96 66.29 C 623.9930830965341 66.28995356391842 624.0270386072049 66.28316246178426 624.06 66.27 Q 624.19 66.23 624.36 66.14 C 624.47186429799 66.07756341978381 624.6052768967346 66.07756341978381 624.71 66.14 Q 627.03 67.51 629.95 67.89 C 630.17541623078 67.91653877675984 630.3978309183306 67.97719732790998 630.61 68.07 Q 635.16 70.07 637.08 70.64 Q 638.37 71.02 639.13 72 Q 639.57 72.57 641.35 73.41 C 641.5096163521011 73.48979653733471 641.6569679191621 73.58021681712206 641.79 73.68 Q 652.29 81.58 656.77 92.26 Q 662.56 106.07 661.51 120.76 Q 661.33 123.15 660.74 129.95 C 660.7067619792027 130.34839366389932 660.6227539659131 130.74155116609447 660.49 131.12 L 655.91 144.78 C 655.7707648761585 145.2110288010372 655.5685669386021 145.61879464177605 655.31 145.99 Q 650.39 153.07 648.78 154.76 Q 644.78 158.97 638.28 162.63 C 638.246243873688 162.64687267970572 638.2054476690281 162.6874136041445 638.1888791265332 162.72055068913434 C 638.1723105840383 162.75368777412422 638.186243873688 162.76687267970573 638.22 162.75 Z M 605.6 80.84 Q 605.79 80.84 605.91 80.94 C 605.9754313821913 80.99767425738078 606.0044221579916 81.08630670130142 605.985721237437 81.17149978382761 C 605.9670203168826 81.25669286635382 605.9035719713129 81.32503379582744 605.82 81.35 Q 599.79 82.97 596.15 86.18 Q 589.78 91.8 586.75 100.73 C 586.01 102.91 586.05 104.9 585.25 107.05 C 585.1372988111069 107.35497703779468 585.0699185915813 107.6716640695652 585.05 107.99 Q 584.66 115.85 584.96 123.56 C 585.07 126.47 585.85 129.11 586.46 132.28 Q 586.89 134.51 587.62 135.14 C 587.8679800111964 135.3578172804273 587.9821712224734 135.6889717931305 587.92 136.01 Q 587.72 137.06 588.47 137.26 C 588.7029045810906 137.32349196378297 588.8895751007826 137.49522884189957 588.97 137.72 Q 590.98 143.28 593.18 145.22 Q 595.53 147.28 597.74 149.2 Q 600.01 151.17 607.86 153.62 Q 608.09 153.69 608.75 153.5 C 609.1532079429221 153.38914468356512 609.5797589464055 153.40662628206854 609.97 153.55 Q 613.68 154.9 618 154.21 C 622.96 153.4 628.04 152.19 631.76 149.21 Q 635.16 146.48 637.4 143.91 Q 641.32 139.41 642.88 132.41 C 643.26 130.7 643.03 128.64 643.63 126.63 C 643.6370629809921 126.61711474998178 643.6486485988621 126.60939100473512 643.66 126.61 Q 643.67 126.62 643.68 126.62 C 643.6983543250427 126.62283206536907 643.7149889084205 126.63179938351016 643.7262419991871 126.64492798940448 C 643.7374950899538 126.65805659529879 643.7424442404156 126.67427029997071 643.74 126.69 Q 643.48 127.47 643.68 128.06 C 643.7072890988433 128.1337539408703 643.7794654348558 128.17897803831517 643.8590046958132 128.17216038737598 C 643.9385439567704 128.16534273643677 644.0074908325801 128.10802236369284 644.03 128.03 Q 644.82 124.36 644.85 123.28 Q 645.02 118.06 644.75 109.24 Q 644.68 106.89 642.33 100.55 C 642.2234989555647 100.2571396306712 642.1398949600475 99.95282108698872 642.08 99.64 Q 641.86 98.42 641.67 97.6 Q 641.49 96.82 640.89 95.5 Q 639.56 92.53 637.61 90.27 Q 634.93 87.17 634.51 86.7 Q 633.06 85.12 630.55 83.96 Q 628.24 82.9 627.21 82.32 C 625.52 81.38 623.67 80.42 622.47 80.3 Q 618.07 79.85 615.87 79.27 C 615.487672713709 79.17121805834515 615.0922623295539 79.15417450730399 614.71 79.22 L 605.6 80.82 C 605.5944771525017 80.82 605.59 80.82447715250169 605.59 80.83 C 605.59 80.83552284749831 605.5944771525017 80.84 605.6 80.84 Z" transform="translate(-614.94, -117.18)" style="stroke: none; stroke-width: 1; stroke-dasharray: none; stroke-linecap: butt; stroke-dashoffset: 0; stroke-linejoin: miter; stroke-miterlimit: 4; fill: rgb(34,32,175); fill-rule: nonzero; opacity: 1;"></path>
</g>
<g transform="matrix(0.72 0 0 0.72 1369.66 302)">
<path stroke-linecap="round" d="M 233.693 164.5146 C 233.69382288343272 164.98933773383274 233.50602286564762 165.44495825738005 233.1709139569376 165.78122989217098 C 232.8358050482276 166.11750152696192 232.38083773629867 166.30687854043975 231.9061 166.3077 L 217.9261 166.3321 C 216.93754866990122 166.33381359584996 216.1347657600485 165.53385123829887 216.133 164.5453 L 215.967 69.4254 C 215.9661771165673 68.95066226616726 216.1539771343524 68.49504174261996 216.4890860430624 68.15877010782903 C 216.82419495177243 67.8224984730381 217.27916226370132 67.63312145956027 217.7539 67.6323 L 231.7339 67.6079 C 232.72245133009878 67.60618640415004 233.5252342399515 68.40614876170113 233.527 69.3947 L 233.693 164.5146 Z" transform="translate(-224.83, -116.97)" style="stroke: none; stroke-width: 1; stroke-dasharray: none; stroke-linecap: butt; stroke-dashoffset: 0; stroke-linejoin: miter; stroke-miterlimit: 4; fill: rgb(0,0,0); fill-rule: nonzero; opacity: 1;"></path>
</g>
<g transform="matrix(0.72 0 0 0.72 1750.31 301.98)">
<path stroke-linecap="round" d="M 761.12 111.29 Q 761.1 110.58 759.72 106.84 C 759.6135695317141 106.56060290108341 759.5332299517642 106.2727194062628 759.48 105.98 Q 758.71 101.88 756.64 98.73 C 756.5072316823537 98.52423402171327 756.3997104935255 98.2991115326043 756.32 98.06 L 754.56 92.49 C 754.520417403056 92.35099948705295 754.3994680628354 92.2506232862299 754.2555533369238 92.2373388499919 C 754.1116386110122 92.2240544137539 753.9743585774928 92.30059405700098 753.91 92.43 Q 751.26 97.5 750.17 100.59 Q 745.09 114.97 738.96 131.48 C 738.9203351955914 131.57928645827062 738.8999711623061 131.68450063024466 738.9 131.79 L 738.9 132.97 C 738.8998413940521 133.19831823349983 738.8338200726175 133.4207058425427 738.71 133.61 Q 737.35 135.7 734.93 142.42 Q 728.43 160.43 726.55 165.69 C 726.4260874180409 166.0540487249714 726.084558282947 166.29914610427412 725.7 166.3 L 710.94 166.3 C 710.5644080703518 166.29921351826644 710.2251842913009 166.07043469053448 710.08 165.72 L 708.13 161.05 C 708.1168996363123 161.01721376571956 708.1100443982245 160.98636519432478 708.11 160.96 Q 708.24 158.76 707.27 157.18 C 707.1175355670457 156.92814576602314 707.0029743243005 156.65522045242415 706.93 156.37 Q 706.27 153.52 704.43 150.72 C 704.2261662383347 150.3980880127588 704.1026928392874 150.0310976322569 704.07 149.65 Q 703.96 148.36 703.17 147.91 C 703.022312318299 147.82183809443228 702.9157639187054 147.67886451785827 702.8743758626956 147.51331229381924 C 702.8329878066859 147.3477600697802 702.860244142633 147.17356539176808 702.95 147.03 Q 703.33 146.42 702.67 144.87 Q 701.59 142.37 700.68 139.65 C 700.6334956620789 139.51719917521288 700.5696588794921 139.38952561003913 700.49 139.27 L 699.23 137.47 C 699.1342628536147 137.33570837729962 699.0981225741206 137.1658490636771 699.13 137 Q 699.28 136.16 698.27 133.12 Q 695.88 125.92 694.31 122.86 Q 693.09 120.49 692.92 119.19 Q 692.54 116.33 689.57 111.03 C 689.3973338060886 110.72449515391736 689.2630220549555 110.4021469511981 689.17 110.07 Q 687 102.35 684.79 96.73 Q 684.29 95.47 683.46 94.73 C 683.2254028638412 94.51368369105056 683.0974622435847 94.20662620243486 683.11 93.89 Q 683.16 92.55 682.59 90.88 Q 680.97 86.14 679.39 82.48 C 679.224032233422 82.09495546041641 679.0088141634373 81.73513774966061 678.75 81.41 Q 677.8 80.22 677.98 79.13 C 678.0063131335737 78.94635192234412 677.9891703532145 78.76120989446444 677.93 78.59 L 674.65 69.21 C 674.5209326548191 68.83469498730466 674.5808866335535 68.42017344774607 674.8110040353995 68.09681882273831 C 675.0411214372455 67.77346419773055 675.4131231865723 67.5810134642378 675.81 67.58 L 689.46 67.58 C 690.4785503141978 67.58108337633757 691.3845647339515 68.22250951421624 691.72 69.18 L 700.88 95.4 C 700.8916385900649 95.4313552872566 700.9215543602596 95.45216117818582 700.9549999999999 95.45216117818582 C 700.9884456397403 95.45216117818582 701.0183614099351 95.4313552872566 701.03 95.4 Q 701.12 95.1 701.12 94.64 L 701.13 94.64 Q 701.92 96.46 701.96 98.42 C 701.9600548457784 98.51273197914246 701.9769739183171 98.60747878535898 702.01 98.7 L 717.34 142.57 C 717.3797316137811 142.70213128126497 717.444277414426 142.82442858774996 717.53 142.93 Q 718.13 143.73 718.49 144.71 C 718.5376116932125 144.850961776071 718.6650267351666 144.9496922660092 718.8134115504272 144.96060291419013 C 718.9617963656877 144.97151356237106 719.102282171475 144.89248166417852 719.17 144.76 Q 720.54 142.08 720.65 141.89 Q 721.6 140.41 721.91 138.92 Q 721.98 138.59 724.95 129.97 C 725.042594583084 129.69874873414594 725.0866024608106 129.41100491824128 725.08 129.12 Q 725.06 127.55 725.96 126.18 C 725.9660922669686 126.17355422005326 725.9734480764282 126.16987631532346 725.98 126.17 L 726.23 126.25 C 726.2817973361967 126.26264650612835 726.3365712585335 126.2331528556393 726.36 126.18 L 730.06 115.78 C 730.0796961614324 115.72753668208588 730.0865506267719 115.66927372670034 730.08 115.61 Q 729.9 113.83 731.11 112.64 C 731.2944087763537 112.45558210468782 731.4344103192919 112.23704311083297 731.52 112 L 746.98 69.29 C 747.3475153962708 68.26396063659381 748.3201265571721 67.57953056040391 749.41 67.58 L 760.21 67.58 C 760.7021131696822 67.5797896637422 761.1417562108879 67.88753979258624 761.31 68.35 Q 767.9 86.09 771.82 97.89 Q 772.88 101.09 773.36 101.61 C 773.4324934496952 101.6957576681812 773.4869952547972 101.79794855274754 773.52 101.91 Q 775.09 107.23 776.56 111.2 Q 779.4 118.83 785.25 135.72 Q 787.6 142.52 789.23 145.46 C 789.2821956989771 145.56245036179155 789.3899896925042 145.62438795544395 789.5047862285835 145.61789003830737 C 789.6195827646627 145.6113921211708 789.7196988140219 145.53768603452485 789.76 145.43 Q 795.48 130.65 795.82 128.58 Q 796.48 124.47 797.93 121.99 Q 799.78 118.82 801.09 113.46 Q 801.37 112.29 801.8 110.99 Q 803.41 106.12 803.58 105.75 Q 805.29 101.95 805.6 100.63 Q 805.97 99.09 809.78 87.83 C 809.8854751401238 87.50702685323654 810.0557408507156 87.21076451680693 810.28 86.96 Q 811.1 86.03 811.09 84.63 C 811.0900937498953 84.3457992928812 811.1931959029536 84.07204530027813 811.38 83.86 Q 812.06 83.1 812.28 81.16 C 812.3186625154694 80.8483443208044 812.4556164159128 80.56038996602601 812.67 80.34 Q 813.63 79.34 814.24 77.49 Q 816.47 70.76 817.14 68.35 C 817.265543879494 67.90502944580751 817.6663132134208 67.59831822086346 818.12 67.6 L 833.15 67.6 C 833.3588409692389 67.60032594982356 833.5543872634075 67.70252668239293 833.6738823680442 67.87380299903889 C 833.793377472681 68.04507931568484 833.8217894249774 68.26388540304873 833.75 68.46 Q 820.27 104.61 810.98 129.22 Q 810.37 130.83 809.44 134.82 C 809.4329552464271 134.83273263285764 809.4195515804088 134.840635083269 809.405 134.840635083269 C 809.3904484195913 134.840635083269 809.3770447535729 134.83273263285764 809.37 134.82 Q 809.34 134.69 809.21 134.56 C 809.1571083764679 134.51015126713222 809.082473798656 134.49110915173873 809.0105052032101 134.5091013006002 C 808.9385366077641 134.5270934494617 808.8784887354841 134.57980617737817 808.85 134.65 L 797.59 165.76 C 797.4755402209935 166.08345476286485 797.1671001716311 166.29976336891121 796.82 166.3 L 782.31 166.3 C 781.936834619943 166.29950661977483 781.6026808138276 166.06878137269507 781.47 165.72 L 770.13 135.54 C 770.1100344508171 135.5002233011989 770.0965323797576 135.45971708802048 770.09 135.42 Q 768.88 129.55 766.41 125.56 C 766.3901434728522 125.53348474702779 766.3764840467317 125.50616589478679 766.37 125.48 L 761.63 110.75 C 761.5981217882766 110.6702454588142 761.5208895058925 110.61794228634062 761.435 110.61794228634062 C 761.3491104941075 110.61794228634062 761.2718782117234 110.6702454588142 761.24 110.75 Q 761.1 111.11 761.11 111.29 Q 761.12 111.45 761.12 111.29 Z" transform="translate(-754.19, -116.94)" style="stroke: none; stroke-width: 1; stroke-dasharray: none; stroke-linecap: butt; stroke-dashoffset: 0; stroke-linejoin: miter; stroke-miterlimit: 4; fill: rgb(34,32,175); fill-rule: nonzero; opacity: 1;"></path>
</g>
<g transform="matrix(1.1 0 0 1.1 75.17 250)">
<rect height="1080" width="1080" ry="0" rx="0" y="-540" x="-540" style="stroke: none; stroke-width: 1; stroke-dasharray: none; stroke-linecap: butt; stroke-dashoffset: 0; stroke-linejoin: miter; stroke-miterlimit: 4; fill: rgb(255,255,255); fill-rule: nonzero; opacity: 1; visibility: hidden;"></rect>
</g>
<g transform="matrix(0.44 0 0 0.44 1106.68 255.13)">
<path stroke-linecap="round" d="M 246.27 165.79 Q 256.02 157.73 262.27 152.72 Q 276.71 141.15 294.74 133.99 Q 308.21 128.64 324.23 126.77 C 346.14 124.21 369.15 126.54 389.18 134.75 Q 405.6 141.48 419.84 152.83 Q 420.06 153 430.66 161.55 Q 438.27 167.7 439.63 170.79 C 444.84 182.64 434.11 195.21 421.63 191.5 Q 417.91 190.4 411.56 184.73 Q 409.4 182.79 400.89 176.05 Q 379.41 159 352.75 156.38 Q 340.09 155.14 327.24 156.65 Q 302.18 159.62 282.09 175.3 Q 277.77 178.67 265.73 188.62 Q 255.97 196.67 249.73 201.68 Q 235.29 213.25 217.26 220.41 Q 203.79 225.76 187.77 227.63 C 165.86 230.19 142.85 227.86 122.82 219.65 Q 106.4 212.92 92.16 201.57 Q 91.94 201.4 81.34 192.85 Q 73.73 186.7 72.37 183.61 C 67.16 171.76 77.89 159.19 90.37 162.9 Q 94.09 164 100.44 169.67 Q 102.6 171.61 111.11 178.35 Q 132.59 195.4 159.25 198.02 Q 171.91 199.26 184.76 197.75 Q 209.82 194.78 229.91 179.11 Q 234.23 175.73 246.27 165.79 Z" transform="translate(-256, -177.2)" style="stroke: none; stroke-width: 1; stroke-dasharray: none; stroke-linecap: butt; stroke-dashoffset: 0; stroke-linejoin: miter; stroke-miterlimit: 4; fill: rgb(0,0,0); fill-rule: nonzero; opacity: 1;"></path>
</g>
<g transform="matrix(0.44 0 0 0.44 1106.69 289.87)">
<path stroke-linecap="round" d="M 246.27 244.59 Q 256.03 236.53 262.27 231.53 Q 276.71 219.95 294.74 212.79 Q 308.21 207.44 324.23 205.57 C 346.14 203.01 369.15 205.34 389.18 213.55 Q 405.6 220.28 419.84 231.63 Q 420.06 231.8 430.66 240.35 Q 438.27 246.5 439.63 249.59 C 444.84 261.44 434.11 274.01 421.63 270.3 Q 417.91 269.2 411.56 263.53 Q 409.4 261.59 400.89 254.85 Q 379.41 237.8 352.75 235.18 Q 340.09 233.94 327.24 235.45 Q 302.18 238.42 282.09 254.1 Q 277.77 257.47 265.73 267.42 Q 255.98 275.47 249.73 280.48 Q 235.29 292.05 217.26 299.21 Q 203.8 304.56 187.78 306.43 C 165.87 308.99 142.86 306.66 122.83 298.45 Q 106.41 291.72 92.17 280.37 Q 91.95 280.2 81.35 271.65 Q 73.74 265.5 72.38 262.41 C 67.17 250.57 77.9 238 90.38 241.71 Q 94.1 242.8 100.45 248.47 Q 102.61 250.41 111.12 257.15 Q 132.6 274.2 159.26 276.82 Q 171.92 278.06 184.76 276.55 Q 209.82 273.58 229.91 257.91 Q 234.23 254.53 246.27 244.59 Z" transform="translate(-256, -256)" style="stroke: none; stroke-width: 1; stroke-dasharray: none; stroke-linecap: butt; stroke-dashoffset: 0; stroke-linejoin: miter; stroke-miterlimit: 4; fill: rgb(34,32,175); fill-rule: nonzero; opacity: 1;"></path>
</g>
<g transform="matrix(0.44 0 0 0.44 1106.69 324.6)">
<path stroke-linecap="round" d="M 246.28 323.38 Q 256.03 315.32 262.28 310.32 Q 276.72 298.75 294.75 291.59 Q 308.22 286.24 324.24 284.37 C 346.15 281.81 369.16 284.14 389.19 292.35 Q 405.61 299.08 419.85 310.43 Q 420.07 310.6 430.68 319.15 Q 438.29 325.3 439.65 328.39 C 444.86 340.24 434.12 352.81 421.64 349.1 Q 417.92 348 411.57 342.33 Q 409.41 340.39 400.9 333.65 Q 379.42 316.6 352.76 313.98 Q 340.1 312.74 327.25 314.25 Q 302.19 317.22 282.1 332.89 Q 277.78 336.26 265.74 346.21 Q 255.98 354.27 249.73 359.27 Q 235.3 370.85 217.26 378.01 Q 203.79 383.36 187.77 385.23 C 165.86 387.79 142.85 385.45 122.82 377.24 Q 106.4 370.51 92.16 359.16 Q 91.94 358.99 81.34 350.44 Q 73.73 344.29 72.37 341.2 C 67.16 329.35 77.89 316.78 90.37 320.49 Q 94.09 321.59 100.44 327.26 Q 102.6 329.2 111.11 335.94 Q 132.59 352.99 159.25 355.61 Q 171.91 356.85 184.76 355.34 Q 209.82 352.37 229.91 336.7 Q 234.23 333.33 246.28 323.38 Z" transform="translate(-256.01, -334.8)" style="stroke: none; stroke-width: 1; stroke-dasharray: none; stroke-linecap: butt; stroke-dashoffset: 0; stroke-linejoin: miter; stroke-miterlimit: 4; fill: rgb(34,32,175); fill-rule: nonzero; opacity: 1;"></path>
</g>
</svg>